HIERARCHY
ROOT SpineBase
{
  OFFSET 0.000000 0.000000 0.000000
  CHANNELS 6 Xposition Yposition Zposition Zrotation Xrotation Yrotation
  JOINT SpineMid
  {
    OFFSET 0.000000 32.428398 0.000000
    CHANNELS 3 Zrotation Xrotation Yrotation
    JOINT SpineShoulder
    {
      OFFSET -0.276288 23.743656 -0.534898
      CHANNELS 3 Zrotation Xrotation Yrotation
      JOINT Neck
      {
        OFFSET -0.155803 7.768038 -0.523147
        CHANNELS 3 Zrotation Xrotation Yrotation
        JOINT Head
        {
          OFFSET -4.130015 11.612898 2.595254
          CHANNELS 3 Zrotation Xrotation Yrotation
          End Site
          {
            OFFSET 0 0 0
          }
        }
      }
      JOINT ShoulderLeft
      {
        OFFSET -8.868718 -4.458190 15.230250
        CHANNELS 3 Zrotation Xrotation Yrotation
        JOINT ElbowLeft
        {
          OFFSET -8.834975 -21.561498 19.471671
          CHANNELS 3 Zrotation Xrotation Yrotation
          JOINT WristLeft
          {
            OFFSET -0.542246 -29.653025 -8.385084
            CHANNELS 3 Zrotation Xrotation Yrotation
            JOINT HandLeft
            {
              OFFSET -3.036907 -1.721239 1.340491
              CHANNELS 3 Zrotation Xrotation Yrotation
              JOINT HandTipLeft
              {
                OFFSET -2.877243 -4.974351 -1.528449
                CHANNELS 3 Zrotation Xrotation Yrotation
                End Site
                {
                  OFFSET 0 0 0
                }
              }
              JOINT ThumbLeft
              {
                OFFSET -2.868102 0.372043 -3.753648
                CHANNELS 3 Zrotation Xrotation Yrotation
                End Site
                {
                  OFFSET 0 0 0
                }
              }
            }
          }
        }
      }
      JOINT ShoulderRight
      {
        OFFSET 6.266152 -2.262880 -14.834227
        CHANNELS 3 Zrotation Xrotation Yrotation
        JOINT ElbowRight
        {
          OFFSET 2.756076 -22.992339 -5.976838
          CHANNELS 3 Zrotation Xrotation Yrotation
          JOINT WristRight
          {
            OFFSET -27.864289 -13.990032 11.017839
            CHANNELS 3 Zrotation Xrotation Yrotation
            JOINT HandRight
            {
              OFFSET -2.929870 1.414736 2.191669
              CHANNELS 3 Zrotation Xrotation Yrotation
              JOINT HandTipRight
              {
                OFFSET -3.999603 -1.454247 3.716043
                CHANNELS 3 Zrotation Xrotation Yrotation
                End Site
                {
                  OFFSET 0 0 0
                }
              }
              JOINT ThumbRight
              {
                OFFSET -0.447846 3.249740 -1.606157
                CHANNELS 3 Zrotation Xrotation Yrotation
                End Site
                {
                  OFFSET 0 0 0
                }
              }
            }
          }
        }
      }
    }
  }
  JOINT HipLeft
  {
    OFFSET -3.127860 0.021238 2.733266
    CHANNELS 3 Zrotation Xrotation Yrotation
    JOINT KneeLeft
    {
      OFFSET -3.332411 -31.439374 12.113297
      CHANNELS 3 Zrotation Xrotation Yrotation
      JOINT AnkleLeft
      {
        OFFSET 12.545429 -31.748341 11.801518
        CHANNELS 3 Zrotation Xrotation Yrotation
        JOINT FootLeft
        {
          OFFSET -6.449561 -6.350467 -6.641889
          CHANNELS 3 Zrotation Xrotation Yrotation
          End Site
          {
            OFFSET 0 0 0
          }
        }
      }
    }
  }
  JOINT HipRight
  {
    OFFSET 2.284545 2.186822 -10.381642
    CHANNELS 3 Zrotation Xrotation Yrotation
    JOINT KneeRight
    {
      OFFSET 5.060254 -34.265867 -1.287987
      CHANNELS 3 Zrotation Xrotation Yrotation
      JOINT AnkleRight
      {
        OFFSET 9.330973 -35.259290 0.511719
        CHANNELS 3 Zrotation Xrotation Yrotation
        JOINT FootRight
        {
          OFFSET -10.100083 -4.057684 -8.431166
          CHANNELS 3 Zrotation Xrotation Yrotation
          End Site
          {
            OFFSET 0 0 0
          }
        }
      }
    }
  }
}
MOTION
Frames: 7
Frame Time: 0.033333
46.273350 79.604903 366.620848 0.736414 -2.378630 61.806082 -0.280507 0.347013 -61.802246 -0.343319 0.119889 -0.020639 13.958209 8.840219 -2.007182 0.000000 0.000000 0.000000 22.592433 38.885341 -5.741563 -53.618927 -58.965870 -29.231980 77.503360 27.792083 -57.470769 -30.889967 -36.909157 11.529139 0.000000 0.000000 0.000000 0.000000 0.000000 0.000000 -12.856992 12.380059 6.209988 -12.269623 1.367902 -34.781978 33.302037 -6.409737 0.146593 -24.756674 -2.249457 -3.067152 0.000000 0.000000 0.000000 0.000000 0.000000 0.000000 13.991222 2.798942 -61.611980 -17.439888 0.492150 -2.666867 7.617333 -5.366718 0.320916 0.000000 0.000000 0.000000 4.744957 -4.222230 -62.031891 -5.046854 -5.643183 -1.142489 10.152501 -2.454068 -4.281635 0.000000 0.000000 0.000000
46.247935 79.863645 366.931009 0.574817 -2.663753 61.964934 -0.219733 0.289017 -61.969191 -0.357002 0.163920 -0.025248 13.113222 8.832440 -1.813244 0.000000 0.000000 0.000000 22.747194 39.087765 -5.838633 -53.530202 -58.600995 -29.042132 76.960383 27.811590 -57.268531 -31.378069 -38.492126 12.895550 0.000000 0.000000 0.000000 0.000000 0.000000 0.000000 -14.475787 14.845999 7.463477 -17.268770 -2.285588 -35.107238 33.757056 -4.983177 1.015476 -23.835691 -3.499901 -5.318725 0.000000 0.000000 0.000000 0.000000 0.000000 0.000000 14.830187 3.030511 -61.892144 -17.407429 -0.109588 -2.748425 9.294536 -6.295622 -0.188501 0.000000 0.000000 0.000000 5.562029 -4.111527 -62.120454 -5.317081 -6.050428 -1.215328 16.918944 -7.925788 -6.280461 0.000000 0.000000 0.000000
46.239888 80.144663 367.115547 0.464210 -2.774251 61.729614 -0.316369 0.181922 -61.740632 -0.376346 0.204805 -0.029107 11.959118 8.623425 -1.569759 0.000000 0.000000 0.000000 22.886349 39.278754 -5.931546 -53.196292 -58.343930 -28.741868 76.419676 27.863224 -57.410078 -31.176920 -40.256260 14.744325 0.000000 0.000000 0.000000 0.000000 0.000000 0.000000 -17.656959 18.052457 9.662131 -23.250746 -7.643396 -35.901111 34.894175 -2.636185 0.433360 -20.537926 -5.467263 -3.499866 0.000000 0.000000 0.000000 0.000000 0.000000 0.000000 14.841261 3.471406 -61.886998 -16.730374 -0.172033 -2.369555 11.472152 -7.980492 -0.874364 0.000000 0.000000 0.000000 6.089537 -3.976035 -61.827740 -5.500693 -6.359222 -1.276949 24.366774 -14.247599 -6.698993 0.000000 0.000000 0.000000
46.263581 80.403240 367.133032 0.375169 -2.665859 60.922699 -0.544191 0.054568 -60.939800 -0.385509 0.217937 -0.033824 10.796010 8.181461 -1.347609 0.000000 0.000000 0.000000 23.023221 39.405854 -5.991502 -52.757118 -58.121857 -28.391784 75.445731 28.087862 -55.442293 -31.865061 -40.143655 14.038476 0.000000 0.000000 0.000000 0.000000 0.000000 0.000000 -22.150586 21.496751 12.756879 -30.298653 -14.139621 -37.586201 36.417805 0.141386 -2.162004 -17.798294 -6.612603 -3.698105 0.000000 0.000000 0.000000 0.000000 0.000000 0.000000 14.565607 3.618962 -61.120732 -16.522604 -0.165207 -2.296277 12.262690 -8.196724 -1.295184 0.000000 0.000000 0.000000 6.257695 -3.863682 -60.981700 -5.508181 -6.524264 -1.310981 31.403200 -20.070302 -5.880525 0.000000 0.000000 0.000000
46.258435 80.860166 367.210391 0.238006 -2.705456 60.465850 -0.629254 -0.037204 -60.491653 -0.383511 0.242322 -0.038352 9.372289 7.665588 -1.070160 0.000000 0.000000 0.000000 23.159990 39.529981 -6.050428 -52.237874 -57.984840 -28.025414 74.229533 28.402342 -52.904210 -32.112610 -39.056725 12.619945 0.000000 0.000000 0.000000 0.000000 0.000000 0.000000 -28.065885 25.021723 16.926602 -37.295073 -20.701387 -40.986325 37.817602 3.125186 -4.450330 -15.397117 -7.976309 -4.931319 0.000000 0.000000 0.000000 0.000000 0.000000 0.000000 14.816694 3.827107 -60.748768 -16.383558 -0.557167 -2.328659 12.251542 -8.307592 -1.088369 0.000000 0.000000 0.000000 6.539545 -3.733972 -60.490487 -5.506363 -6.631774 -1.332790 37.196233 -24.412420 -3.570073 0.000000 0.000000 0.000000
46.274146 81.126683 367.133480 0.149578 -2.524423 60.407030 -0.841746 -0.157863 -60.439394 -0.354672 0.234810 -0.041600 7.411557 7.178504 -0.619429 0.000000 0.000000 0.000000 23.239176 39.596383 -6.081919 -51.713233 -57.930851 -27.686674 73.142582 28.674159 -50.309777 -30.788972 -37.557641 11.375077 0.000000 0.000000 0.000000 0.000000 0.000000 0.000000 -34.486816 28.136502 21.630593 -44.110175 -26.625480 -45.567705 38.156568 5.583017 -6.356196 -13.503965 -9.625324 -6.520902 0.000000 0.000000 0.000000 0.000000 0.000000 0.000000 14.877225 3.790670 -60.700849 -16.328793 -0.951687 -2.423720 12.059121 -8.000853 -1.052403 0.000000 0.000000 0.000000 6.330577 -3.885972 -60.429745 -5.463486 -6.562477 -1.323422 38.373613 -25.184202 -2.922638 0.000000 0.000000 0.000000
46.345191 81.065582 366.849556 0.144310 -2.104687 60.189793 -1.134402 -0.278709 -60.224123 -0.363476 0.154647 -0.045437 5.426007 6.702286 -0.131277 0.000000 0.000000 0.000000 23.286537 39.572583 -6.066633 -51.157932 -57.859814 -27.324771 72.356033 28.828855 -48.669871 -29.364161 -36.343365 10.541070 0.000000 0.000000 0.000000 0.000000 0.000000 0.000000 -40.317330 30.392899 26.033431 -50.256659 -31.230165 -50.380100 37.668954 7.632343 -7.009526 -10.526658 -10.900748 -7.363369 0.000000 0.000000 0.000000 0.000000 0.000000 0.000000 14.229565 3.533481 -60.397142 -16.269178 -0.845800 -2.446455 11.364004 -7.390302 -0.856184 0.000000 0.000000 0.000000 5.576232 -4.181419 -60.253106 -5.381240 -6.231031 -1.272408 34.789949 -22.379955 -2.992450 0.000000 0.000000 0.000000
